# xmcd
#
# Track frame offsets:
#	182
#	9645
#	35320
#	51722
#	63242
#	78770
#	98115
#	117827
#	140535
#	180720
#	254362
#	271105
#	281142
#	301870
#
# Disc length: 4566 seconds
# Revision: 0
# Processed by: cddbd v1.5.2PL0 Copyright (c) Steve Scherf et al.
# Submitted via: dBpowerAMP V12.0
#
DISCID=be11d40e
DTITLE=Various Artist - Vienna: Music by Schoenberg, Webern and Berg
DYEAR=1962
DGENRE=Classical
TTITLE0=Antal Dorati: London Symphony Orchestra - Schoenberg: Five Pieces for Orchestra: I. Vorgefuhle
TTITLE1=Antal Dorati: London Symphony Orchestra - Schoenberg: Five Pieces for Orchestra: II. Vergangenes
TTITLE2=Antal Dorati: London Symphony Orchestra - Schoenberg: Five Pieces for Orchestra: III. Sommermorgen an einem See
TTITLE3=Antal Dorati: London Symphony Orchestra - Schoenberg: Five Pieces for Orchestra: IV. Peripetie
TTITLE4=Antal Dorati: London Symphony Orchestra - Schoenberg: Five Pieces for Orchestra: V. Das obligate Rezitativ
TTITLE5=Antal Dorati: London Symphony Orchestra - Webern: Five Pieces for Orchestra, Op. 10
TTITLE6=Antal Dorati: London Symphony Orchestra - Berg: Three Pieces for Orchestra: I. Praeludium
TTITLE7=Antal Dorati: London Symphony Orchestra - Berg: Three Pieces for Orchestra: II. Reigen
TTITLE8=Antal Dorati: London Symphony Orchestra - Berg: Three Pieces for Orchestra: III. Marsch
TTITLE9=Helga Pilarczyk - Berg: "Lulu" Suite: I. Rondo
TTITLE10=Helga Pilarczyk - Berg: "Lulu" Suite: II. Ostinato
TTITLE11=Helga Pilarczyk - Berg: "Lulu" Suite: III. Lulu's Song
TTITLE12=Helga Pilarczyk - Berg: "Lulu" Suite: IV. Variations
TTITLE13=Helga Pilarczyk - Berg: "Lulu" Suite: V. Adagio
EXTD=
EXTT0=
EXTT1=
EXTT2=
EXTT3=
EXTT4=
EXTT5=
EXTT6=
EXTT7=
EXTT8=
EXTT9=
EXTT10=
EXTT11=
EXTT12=
EXTT13=
PLAYORDER=
